<svg xmlns="http://www.w3.org/2000/svg" viewBox="0 0 900 1100">
  <defs>
    <linearGradient id="g" x1="0" y1="0" x2="1" y2="1"><stop stop-color="#e9edff"/><stop offset="1" stop-color="#758dff"/></linearGradient>
    <filter id="s" x="-20%" y="-20%" width="140%" height="140%"><feDropShadow dx="0" dy="28" stdDeviation="28" flood-color="#9b2b5b" flood-opacity=".22"/></filter>
  </defs>
  <rect width="900" height="1100" rx="80" fill="url(#g)"/>
  <circle cx="180" cy="170" r="130" fill="#fff" opacity=".25"/>
  <circle cx="745" cy="255" r="170" fill="#fff" opacity=".16"/>
  <path d="M454 833 C250 686 130 570 130 410 C130 278 235 205 348 205 C418 205 463 239 499 293 C535 239 580 205 650 205 C763 205 868 278 868 410 C868 570 748 686 544 833 L499 865 Z" fill="#fff" opacity=".88" filter="url(#s)"/>
  <rect x="110" y="825" width="680" height="175" rx="44" fill="#fff" opacity=".82"/>
  <text x="450" y="902" text-anchor="middle" font-family="Poppins, Arial" font-size="52" font-weight="800" fill="#ff4f9a">FOTO 5</text>
  <text x="450" y="955" text-anchor="middle" font-family="Poppins, Arial" font-size="28" font-weight="600" fill="#8b5270">klik untuk detail memory</text>
</svg>