<svg xmlns="http://www.w3.org/2000/svg" viewBox="0 0 420 330">
<style>.pair{transform-origin:210px 180px;animation:hug 1.2s ease-in-out infinite}.h{animation:up 1.5s ease-in-out infinite alternate}@keyframes hug{50%{transform:scale(1.04)}}@keyframes up{to{transform:translateY(-16px);opacity:.55}}</style>
<rect width="420" height="330" fill="none"/>
<g class="h" fill="#ff72b5"><path d="M64 88c-18-18-48-6-48 20 0 25 25 42 48 62 23-20 48-37 48-62 0-26-30-38-48-20z" opacity=".75"/><path d="M348 90c-15-15-40-5-40 16 0 21 21 35 40 52 19-17 40-31 40-52 0-21-25-31-40-16z" opacity=".55"/></g>
<g class="pair"><circle cx="158" cy="105" r="52" fill="#ffd2b8"/><circle cx="262" cy="105" r="52" fill="#ffd2b8"/><path d="M105 170c0-48 32-84 76-84h58c44 0 76 36 76 84v82H105z" fill="#ff5fa8"/><path d="M172 175c37 38 69 38 106 0" fill="none" stroke="#fff" stroke-width="17" stroke-linecap="round"/><path d="M117 170c42 39 83 51 124 24" fill="none" stroke="#7d2e56" stroke-width="22" stroke-linecap="round" opacity=".22"/><path d="M303 170c-42 39-83 51-124 24" fill="none" stroke="#7d2e56" stroke-width="22" stroke-linecap="round" opacity=".22"/><circle cx="140" cy="112" r="7" fill="#421225"/><circle cx="176" cy="112" r="7" fill="#421225"/><circle cx="244" cy="112" r="7" fill="#421225"/><circle cx="280" cy="112" r="7" fill="#421225"/><path d="M145 135q13 12 26 0M249 135q13 12 26 0" fill="none" stroke="#421225" stroke-width="6" stroke-linecap="round"/></g>
</svg>